# xmcd
#
# Track frame offsets: 
#        150
#        12275
#        25817
#        38700
#        51792
#        64835
#        78085
#        89670
#        100975
#        114325
#        126142
#        139127
#        150867
#        164450
#        177057
#        190102
#        202850
#        215915
#        229277
#        240637
#        252645
#        266435
#        279872
#        293445
#        306100
#        318667
#        332330
#        346075
#
# Disc length: 4787 seconds
#
# Revision: 2
# Processed by: cddbd v1.5.2PL0 Copyright (c) Steve Scherf et al.
# Submitted via: ExactAudioCopyFreeDBPlugin 1.0
#
DISCID=7f12b11c
DTITLE=The Bailes Brothers - Oh So Many Years
DYEAR=2002
DGENRE=Country
TTITLE0=The Drunkard's Grave
TTITLE1=Searching For A Soldier's Grave
TTITLE2=As Long As I Live
TTITLE3=Dust On The Bible
TTITLE4=There's Tears In My Eyes All The Time
TTITLE5=Fare Thee Well
TTITLE6=I've Got My One Way Ticket To The Sky
TTITLE7=I Want To Be Loved (But Only By You)
TTITLE8=Down Where The River Bends
TTITLE9=I Guess I'll Go On Dreaming
TTITLE10=Whiskey Is The Devil (In Liquid Form)
TTITLE11=Broken Marriage Vows
TTITLE12=Building On The Sands
TTITLE13=We're Living In The Last Days Now
TTITLE14=You'll Always Be The Only One
TTITLE15=Oh So Many Years
TTITLE16=If You Have Retreated From God
TTITLE17=Ashamed To Own The Blessed Savior
TTITLE18=Do You Expect A Reward From God
TTITLE19=Read Romans Ten And Nine
TTITLE20=Come To The Saviour
TTITLE21=Remember Me
TTITLE22=Has The Devil Got A Mortgage On You
TTITLE23=My Heart Echoes
TTITLE24=You Can't Go Half Way
TTITLE25=Prettty Flowers
TTITLE26=Sinner Kneel Down And Pray
TTITLE27=Will The Angels Have A Sweetheart
EXTD=
EXTT0=
EXTT1=
EXTT2=
EXTT3=
EXTT4=
EXTT5=
EXTT6=
EXTT7=
EXTT8=
EXTT9=
EXTT10=
EXTT11=
EXTT12=
EXTT13=
EXTT14=
EXTT15=
EXTT16=
EXTT17=
EXTT18=
EXTT19=
EXTT20=
EXTT21=
EXTT22=
EXTT23=
EXTT24=
EXTT25=
EXTT26=
EXTT27=
PLAYORDER=
